<svg xmlns="http://www.w3.org/2000/svg" xmlns:xlink="http://www.w3.org/1999/xlink" width="100" zoomAndPan="magnify" viewBox="0 0 75 74.999997" height="100" preserveAspectRatio="xMidYMid meet" version="1.0"><defs><g/><clipPath id="5f1fe84caf"><path d="M 2 0.320312 L 38 0.320312 L 38 28 L 2 28 Z M 2 0.320312 " clip-rule="nonzero"/></clipPath><clipPath id="25a55cc453"><path d="M 36 0.320312 L 72 0.320312 L 72 29 L 36 29 Z M 36 0.320312 " clip-rule="nonzero"/></clipPath><clipPath id="f69182a2bd"><rect x="0" width="74" y="0" height="39"/></clipPath></defs><rect x="-7.5" width="90" fill="#ffffff" y="-7.5" height="89.999996" fill-opacity="1"/><rect x="-7.5" width="90" fill="#0290f7" y="-7.5" height="89.999996" fill-opacity="1"/><g transform="matrix(1, 0, 0, 1, 1, 22)"><g clip-path="url(#f69182a2bd)"><g clip-path="url(#5f1fe84caf)"><g fill="#ffffff" fill-opacity="1"><g transform="translate(2.626152, 28.003674)"><g><path d="M 1.546875 -0.09375 C 1.773438 -1 1.945312 -2.050781 2.0625 -3.25 C 2.175781 -4.457031 2.25 -5.710938 2.28125 -7.015625 C 2.3125 -8.328125 2.289062 -9.570312 2.21875 -10.75 L 1.96875 -14.6875 C 1.894531 -15.851562 1.765625 -17.082031 1.578125 -18.375 C 1.390625 -19.675781 1.15625 -20.925781 0.875 -22.125 C 0.59375 -23.320312 0.296875 -24.34375 -0.015625 -25.1875 L 22.265625 -26.578125 C 23.941406 -26.679688 25.472656 -26.5625 26.859375 -26.21875 C 28.242188 -25.882812 29.367188 -25.304688 30.234375 -24.484375 C 31.109375 -23.660156 31.585938 -22.585938 31.671875 -21.265625 C 31.742188 -19.941406 31.40625 -18.820312 30.65625 -17.90625 C 29.914062 -17 28.890625 -16.285156 27.578125 -15.765625 C 26.273438 -15.253906 24.8125 -14.945312 23.1875 -14.84375 L 22.5 -14.8125 L 22.53125 -14.3125 L 23.96875 -14.390625 C 25.757812 -14.503906 27.394531 -14.375 28.875 -14 C 30.363281 -13.632812 31.570312 -13.003906 32.5 -12.109375 C 33.4375 -11.222656 33.945312 -10.050781 34.03125 -8.59375 C 34.125 -7.125 33.765625 -5.890625 32.953125 -4.890625 C 32.140625 -3.890625 31.019531 -3.109375 29.59375 -2.546875 C 28.164062 -1.984375 26.554688 -1.644531 24.765625 -1.53125 Z M 13.21875 -15.140625 L 19.234375 -15.515625 C 19.785156 -15.546875 20.226562 -15.671875 20.5625 -15.890625 C 20.90625 -16.117188 21.0625 -16.445312 21.03125 -16.875 C 21.007812 -17.300781 20.816406 -17.601562 20.453125 -17.78125 C 20.085938 -17.96875 19.628906 -18.046875 19.078125 -18.015625 L 13.0625 -17.640625 Z M 13.578125 -9.40625 L 20.421875 -9.828125 C 21.023438 -9.867188 21.507812 -10.023438 21.875 -10.296875 C 22.238281 -10.566406 22.40625 -10.953125 22.375 -11.453125 C 22.34375 -11.984375 22.128906 -12.359375 21.734375 -12.578125 C 21.335938 -12.796875 20.835938 -12.882812 20.234375 -12.84375 L 13.390625 -12.421875 Z M 13.578125 -9.40625 "/></g></g></g></g><g clip-path="url(#25a55cc453)"><g fill="#ffffff" fill-opacity="1"><g transform="translate(34.498285, 25.802815)"><g><path d="M 29.1875 2.28125 C 27.582031 2.175781 26.265625 1.894531 25.234375 1.4375 C 24.203125 0.988281 23.375 0.414062 22.75 -0.28125 C 22.125 -0.976562 21.617188 -1.726562 21.234375 -2.53125 C 20.847656 -3.34375 20.507812 -4.15625 20.21875 -4.96875 C 19.9375 -5.78125 19.625 -6.523438 19.28125 -7.203125 C 18.9375 -7.878906 18.492188 -8.429688 17.953125 -8.859375 C 17.410156 -9.296875 16.6875 -9.539062 15.78125 -9.59375 C 15.394531 -9.613281 15.054688 -9.578125 14.765625 -9.484375 L 14.75 -9.125 C 14.644531 -7.375 14.648438 -5.59375 14.765625 -3.78125 C 14.890625 -1.976562 15.128906 -0.410156 15.484375 0.921875 L 1.546875 0.09375 C 1.878906 -0.769531 2.179688 -1.789062 2.453125 -2.96875 C 2.734375 -4.15625 2.960938 -5.394531 3.140625 -6.6875 C 3.316406 -7.988281 3.4375 -9.226562 3.5 -10.40625 L 3.75 -14.34375 C 3.8125 -15.507812 3.828125 -16.75 3.796875 -18.0625 C 3.765625 -19.375 3.6875 -20.632812 3.5625 -21.84375 C 3.445312 -23.0625 3.273438 -24.113281 3.046875 -25 L 23.578125 -23.78125 C 26.035156 -23.632812 28.195312 -23.265625 30.0625 -22.671875 C 31.9375 -22.078125 33.390625 -21.265625 34.421875 -20.234375 C 35.453125 -19.203125 35.925781 -17.914062 35.84375 -16.375 C 35.75 -14.84375 35.132812 -13.625 34 -12.71875 C 32.863281 -11.820312 31.335938 -11.195312 29.421875 -10.84375 C 27.503906 -10.5 25.3125 -10.398438 22.84375 -10.546875 L 21.890625 -10.609375 L 21.875 -10.25 L 21.90625 -10.25 C 22.445312 -10.21875 22.9375 -10.140625 23.375 -10.015625 C 23.8125 -9.890625 24.265625 -9.738281 24.734375 -9.5625 C 25.203125 -9.394531 25.765625 -9.242188 26.421875 -9.109375 C 27.078125 -8.972656 27.894531 -8.875 28.875 -8.8125 C 30.1875 -8.738281 31.332031 -8.882812 32.3125 -9.25 C 33.289062 -9.613281 34.125 -10.101562 34.8125 -10.71875 C 35.5 -11.34375 36.019531 -11.992188 36.375 -12.671875 L 35.609375 -0.03125 C 35.285156 0.445312 34.785156 0.867188 34.109375 1.234375 C 33.429688 1.609375 32.660156 1.890625 31.796875 2.078125 C 30.941406 2.265625 30.070312 2.332031 29.1875 2.28125 Z M 14.921875 -12.03125 L 21.484375 -11.640625 C 22.265625 -11.585938 22.921875 -11.65625 23.453125 -11.84375 C 23.984375 -12.039062 24.257812 -12.363281 24.28125 -12.8125 C 24.3125 -13.289062 24.078125 -13.65625 23.578125 -13.90625 C 23.078125 -14.15625 22.4375 -14.304688 21.65625 -14.359375 L 15.09375 -14.75 Z M 14.921875 -12.03125 "/></g></g></g></g></g></g></svg>